# xmcd
#
# Track frame offsets: 
#        150
#        54215
#        80850
#        102272
#        111085
#        135972
#        160962
#        177082
#
# Disc length: 2752 seconds
#
# Revision: 0
# Processed by: cddbd v1.5.2PL0 Copyright (c) Steve Scherf et al.
# Submitted via: ExactAudioCopy v1.0b3
#
DISCID=5d0abe08
DTITLE=Robert Shaw Orchestra And Chorus - Bach: Mass In B Minor [CD1)
DYEAR=1961
DGENRE=Classical
TTITLE0=Misa: Chorus: Kyria Eleison
TTITLE1=Misa: Duet: Christe Elesison (Sopranos 1 And 2)
TTITLE2=Misa: Chorus: Kryie Eleison
TTITLE3=Gloria: Chorus: Gloria In Excelsis Deo
TTITLE4=Gloria: Et In Terra Pax
TTITLE5=Gloria: Aria: Laudamus Te (Soprano 2)
TTITLE6=Gloria: Chorus - Gratias Agimus Tibi Propter
TTITLE7=Gloria: Duet: Domine Deus (Soprano 1 And Tenor)
EXTD=
EXTT0=
EXTT1=
EXTT2=
EXTT3=
EXTT4=
EXTT5=
EXTT6=
EXTT7=
PLAYORDER=
